<svg width="16" height="22" viewBox="0 0 16 22" fill="none" xmlns="http://www.w3.org/2000/svg">
<path d="M15.6551 21.5595H0.345838C0.164338 21.5595 0.0158381 21.4124 0.0158381 21.2309C0.0117131 20.0126 0.062588 16.9684 0.602963 15.0145C0.745963 14.4975 0.919213 14.0767 1.14884 13.6876C1.34271 13.359 1.90096 12.5354 2.90059 11.9661C3.82321 11.4395 4.70734 11.3611 5.28621 11.3886C5.46771 11.3969 5.60934 11.5522 5.59971 11.7337C5.59009 11.9152 5.43746 12.0555 5.25459 12.0472C4.76371 12.0239 4.01296 12.0912 3.22784 12.5381C2.36571 13.029 1.88446 13.7399 1.71809 14.0217C1.51596 14.3627 1.36884 14.723 1.24096 15.1891C0.765213 16.9092 0.685463 19.5534 0.677213 20.8981H15.3251C15.3182 19.5534 15.2385 16.9092 14.7613 15.1891C14.6321 14.723 14.485 14.3641 14.2842 14.0217C14.1178 13.7399 13.6366 13.029 12.7745 12.5381C11.9893 12.0899 11.2386 12.0239 10.7477 12.0472C10.5648 12.0555 10.4108 11.9152 10.4026 11.7324C10.3943 11.5509 10.5346 11.3955 10.7175 11.3872C11.2963 11.3611 12.1791 11.4381 13.1017 11.9647C14.1013 12.534 14.6596 13.359 14.8535 13.6862C15.0831 14.074 15.2563 14.4961 15.3993 15.0131C15.9397 16.9656 15.9906 20.0099 15.9865 21.2295C15.9837 21.4124 15.8366 21.5595 15.6551 21.5595Z" fill="#3F3C3C"/>
<path d="M8.29172 21.5584C8.26422 21.5584 8.23672 21.5556 8.20922 21.5474C8.03322 21.502 7.92597 21.3219 7.97135 21.1459L10.4106 11.635C10.456 11.459 10.6361 11.3518 10.8121 11.3971C10.9881 11.4425 11.0953 11.6226 11.05 11.7986L8.61072 21.3109C8.57222 21.4594 8.43885 21.5584 8.29172 21.5584Z" fill="#3F3C3C"/>
<path d="M7.71725 21.561C7.57012 21.561 7.43675 21.462 7.39825 21.3135L4.948 11.8026C4.90262 11.6266 5.0085 11.4465 5.18587 11.4011C5.36187 11.3557 5.542 11.4616 5.58737 11.639L8.03762 21.1485C8.083 21.3245 7.97712 21.5046 7.79975 21.55C7.77225 21.5582 7.74475 21.561 7.71725 21.561Z" fill="#3F3C3C"/>
<path d="M6.81019 21.5578C6.70156 21.5578 6.59431 21.5042 6.53244 21.4052L6.50219 21.3584L4.19356 17.7353C4.13306 17.6404 4.12481 17.5208 4.17294 17.4191L4.80406 16.0537L3.88144 14.6952C3.83194 14.6223 3.81406 14.5316 3.83056 14.4449L4.38469 11.6661C4.42044 11.4873 4.59369 11.3718 4.77244 11.4076C4.95119 11.4433 5.06669 11.6166 5.03094 11.7953L4.50431 14.4394L5.45444 15.8378C5.51906 15.9341 5.53006 16.0564 5.48056 16.1623L4.84669 17.5332L7.05769 21.0037L7.08794 21.0504C7.18694 21.2044 7.14156 21.4079 6.98756 21.5069C6.93256 21.5413 6.87069 21.5578 6.81019 21.5578ZM9.18894 21.5578C9.12844 21.5578 9.06656 21.5413 9.01156 21.5056C8.85756 21.4079 8.81219 21.2044 8.91119 21.0504L8.96206 20.9707L11.1524 17.5318L10.5186 16.1609C10.4704 16.0551 10.4801 15.9327 10.5447 15.8364L11.4948 14.4381L10.9682 11.7953C10.9324 11.6166 11.0479 11.4433 11.2267 11.4076C11.4054 11.3718 11.5787 11.4873 11.6144 11.6661L12.1686 14.4449C12.1864 14.5316 12.1672 14.6223 12.1177 14.6952L11.1951 16.0537L11.8262 17.4191C11.8729 17.5208 11.8647 17.6404 11.8056 17.7353L9.46669 21.4052C9.40481 21.5042 9.29756 21.5578 9.18894 21.5578ZM8.00506 11.7073C6.85831 11.7073 5.78031 11.2604 4.96906 10.4492C4.15781 9.63794 3.71094 8.55994 3.71094 7.41319V5.73844C3.71094 5.62157 3.77281 5.51432 3.87181 5.45519C3.87594 5.45244 4.32969 5.17744 4.82194 4.68657C4.92781 4.58069 5.09419 4.55869 5.22344 4.63569C5.22894 4.63844 5.84219 4.99182 6.83906 5.17194C8.17006 5.41257 9.51894 5.24757 10.8486 4.68107C10.9709 4.62882 11.1112 4.65494 11.2074 4.74707C11.3394 4.87357 11.7616 5.24482 12.1301 5.44969C12.2346 5.50744 12.2992 5.61882 12.2992 5.73844V7.41319C12.2992 8.55994 11.8523 9.63794 11.0424 10.4492C10.2298 11.2604 9.15181 11.7073 8.00506 11.7073ZM4.37231 5.91857V7.41457C4.37231 9.41794 6.00169 11.0473 8.00506 11.0473C10.0084 11.0473 11.6378 9.41794 11.6378 7.41457V5.92544C11.4646 5.81544 11.2789 5.67794 11.0809 5.51569C11.0149 5.46207 10.9572 5.41119 10.9104 5.36994C10.1707 5.66419 9.41306 5.84569 8.65544 5.91032C7.99544 5.96669 7.33269 5.93507 6.68919 5.81682C5.94669 5.67932 5.40081 5.45794 5.11481 5.32182C4.81094 5.60369 4.53594 5.80582 4.37231 5.91857Z" fill="#3F3C3C"/>
<path d="M4.04162 6.06932C3.91787 6.06932 3.80099 6.00057 3.74324 5.88094C3.53699 5.44782 3.50399 4.97619 3.47512 4.56094C3.45174 4.21994 3.42287 3.79644 3.53012 3.39082C3.62224 3.04019 3.85324 2.66482 4.23549 2.24269C4.29462 2.17807 4.35649 2.11344 4.42112 2.05157C5.45237 1.05607 7.15599 0.662817 7.48737 0.594067C8.13362 0.459317 8.75237 0.411192 9.32437 0.451067C9.72724 0.478567 10.0682 0.529442 10.3666 0.605067C10.7475 0.701317 11.0459 0.886942 11.2287 1.14132C11.3236 1.27469 11.3841 1.41494 11.4364 1.53869C11.4914 1.66657 11.5381 1.77794 11.6124 1.85632C11.7031 1.95257 11.8214 2.03782 11.9451 2.12582C12.0812 2.22344 12.2229 2.32382 12.3521 2.45582C12.6725 2.78169 13.0341 3.32757 13.0891 3.87757C13.14 4.38632 12.9159 4.83319 12.7137 5.16594C12.7082 5.17557 12.6945 5.19894 12.6752 5.23194C12.3452 5.80669 12.2559 5.93182 12.1775 5.99507C12.0372 6.11057 11.8296 6.09132 11.7127 5.94969C11.6027 5.81632 11.6151 5.62107 11.7375 5.50282C11.7719 5.46019 11.8626 5.31994 12.1019 4.90194C12.128 4.85519 12.1404 4.83457 12.1472 4.82219C12.2957 4.57744 12.4621 4.25569 12.4305 3.94219C12.3947 3.58607 12.128 3.17082 11.8791 2.91644C11.7911 2.82569 11.6784 2.74594 11.5601 2.66207C11.4144 2.55894 11.2645 2.45032 11.1284 2.30594C10.9757 2.14232 10.8974 1.95944 10.8286 1.79719C10.7846 1.69544 10.7434 1.59919 10.6911 1.52494C10.577 1.36544 10.3639 1.28432 10.2044 1.24444C9.94587 1.17844 9.64337 1.13444 9.27899 1.10969C8.76612 1.07394 8.20924 1.11794 7.62212 1.24032C7.32237 1.30219 5.77962 1.65694 4.88037 2.52594C4.82674 2.57819 4.77449 2.63182 4.72499 2.68544C4.41974 3.02232 4.23274 3.31657 4.16812 3.55857C4.08837 3.85832 4.11312 4.20757 4.13374 4.51419C4.15987 4.88957 4.18599 5.27732 4.33862 5.59632C4.41699 5.76132 4.34824 5.95794 4.18324 6.03632C4.13787 6.05969 4.08974 6.06932 4.04162 6.06932Z" fill="#3F3C3C"/>
<path d="M8.02209 13.9503C7.95609 13.9503 7.89146 13.9311 7.83509 13.8912L5.07959 11.9882C4.97234 11.9139 4.91871 11.7833 4.94346 11.6554L5.17721 10.4248C5.21159 10.2461 5.38346 10.1278 5.56221 10.1622C5.74096 10.1966 5.85921 10.3684 5.82484 10.5472L5.63096 11.5661L8.02071 13.2174L10.3637 11.5688L10.1712 10.5554C10.1368 10.3767 10.2551 10.2034 10.4338 10.1691C10.6126 10.1347 10.7858 10.2529 10.8202 10.4317L11.0526 11.6541C11.0773 11.7819 11.0237 11.9112 10.9178 11.9854L8.21184 13.8898C8.15546 13.9297 8.08946 13.9503 8.02209 13.9503Z" fill="#3F3C3C"/>
<path d="M8.48238 15.4693H7.53638C7.40301 15.4693 7.28201 15.3896 7.23113 15.2659L6.81451 14.258C6.74438 14.0888 6.82413 13.8963 6.99326 13.8262C7.16101 13.7561 7.35488 13.8358 7.42501 14.005L7.75776 14.8093H8.26376L8.59651 14.005C8.66663 13.8372 8.85913 13.7561 9.02826 13.8262C9.19738 13.8963 9.27713 14.0888 9.20701 14.258L8.78901 15.2659C8.73676 15.3896 8.61576 15.4693 8.48238 15.4693Z" fill="#3F3C3C"/>
<path d="M7.08469 19.0931C7.07094 19.0931 7.05719 19.0917 7.04344 19.0903C6.86194 19.067 6.73407 18.902 6.75744 18.7218L7.21257 15.1001C7.23594 14.9186 7.40094 14.7907 7.58107 14.8141C7.76257 14.8375 7.89044 15.0025 7.86707 15.1826L7.41194 18.8057C7.39132 18.9707 7.24969 19.0931 7.08469 19.0931ZM6.77532 21.5598C6.76157 21.5598 6.74782 21.5585 6.73407 21.5571C6.55257 21.5337 6.42469 21.3687 6.44807 21.1886L6.45494 21.135C6.47282 20.97 6.61307 20.8421 6.78219 20.8421C6.96507 20.8421 7.11219 20.9892 7.11219 21.1721C7.11219 21.1858 7.11082 21.1996 7.10944 21.2133L7.10257 21.2725C7.08194 21.4375 6.93894 21.5598 6.77532 21.5598ZM9.25032 21.5598C9.08669 21.5598 8.94369 21.4375 8.92307 21.2711L8.91069 21.1707C8.88732 20.9892 9.01657 20.8242 9.19669 20.8022C9.37819 20.7802 9.54319 20.9081 9.56519 21.0882L9.57757 21.1886C9.60094 21.3701 9.47169 21.5351 9.29157 21.5571C9.27782 21.5585 9.26407 21.5598 9.25032 21.5598ZM8.93544 19.0477C8.77182 19.0477 8.62882 18.9253 8.60819 18.759L8.15857 15.1798C8.13519 14.9983 8.26444 14.8333 8.44457 14.8113C8.62469 14.788 8.79107 14.9172 8.81307 15.0973L9.26269 18.6765C9.28607 18.858 9.15682 19.023 8.97669 19.045C8.96294 19.0477 8.94919 19.0477 8.93544 19.0477Z" fill="#3F3C3C"/>
<path d="M6.04893 15.0708C5.93343 15.0708 5.82206 15.0103 5.76156 14.9031C5.67218 14.7449 5.72718 14.5428 5.88531 14.4534L6.95918 13.8443L7.85981 13.3328C8.01793 13.2421 8.22006 13.2971 8.31081 13.4552C8.40156 13.6133 8.34656 13.8154 8.18843 13.9062L8.17606 13.9131L7.28506 14.4191L6.21118 15.0282C6.16031 15.0571 6.10531 15.0708 6.04893 15.0708Z" fill="#3F3C3C"/>
<path d="M9.85514 15.0024C9.80014 15.0024 9.74376 14.9886 9.69289 14.9597L7.83801 13.9065C7.67989 13.8157 7.62489 13.615 7.71564 13.4555C7.80639 13.296 8.00714 13.2424 8.16664 13.3331L8.17901 13.34L10.0188 14.385C10.1769 14.4744 10.2333 14.6765 10.1425 14.8346C10.082 14.9419 9.97064 15.0024 9.85514 15.0024Z" fill="#3F3C3C"/>
</svg>
