<svg width="18" height="19" viewBox="0 0 18 19" fill="none" xmlns="http://www.w3.org/2000/svg">
<path d="M14.3294 9.44473C14.3328 9.70328 14.279 9.95939 14.1719 10.1947C14.0594 10.4437 13.8869 10.6597 13.6694 10.8247L6.4319 16.4572C6.17711 16.6515 5.87326 16.771 5.5544 16.8022H5.3819C5.12119 16.8023 4.86416 16.7406 4.6319 16.6222C4.35006 16.4838 4.11154 16.2708 3.94229 16.0064C3.77303 15.7419 3.67951 15.4361 3.6719 15.1222V4.62223C3.67034 4.31229 3.75612 4.00818 3.9194 3.74473C4.07741 3.48131 4.30374 3.26554 4.57442 3.12029C4.8451 2.97505 5.15003 2.90575 5.4569 2.91973C5.7659 2.93473 6.0659 3.03073 6.3269 3.19723L13.5719 8.02723C13.7924 8.18023 13.9769 8.37973 14.1119 8.61223C14.2544 8.86723 14.3294 9.15298 14.3294 9.44473Z" fill="#0C0C0C"/>
</svg>
