<svg width="22" height="22" viewBox="0 0 22 22" fill="none" xmlns="http://www.w3.org/2000/svg">
<path fill-rule="evenodd" clip-rule="evenodd" d="M13.4489 6.36041C12.8831 5.62822 11.9962 5.15625 11 5.15625C10.0038 5.15625 9.11694 5.62822 8.55112 6.36041C8.30569 4.89741 7.03209 3.78125 5.5 3.78125C3.79259 3.78125 2.40625 5.16759 2.40625 6.875C2.40625 8.58241 3.79259 9.96875 5.5 9.96875C5.97315 9.969 6.44003 9.86054 6.86462 9.65176C7.28922 9.44298 7.66017 9.13945 7.94888 8.76459C8.19431 10.2276 9.46791 11.3438 11 11.3438C12.5321 11.3438 13.8057 10.2276 14.0511 8.76459C14.3398 9.13945 14.7108 9.44298 15.1354 9.65176C15.56 9.86054 16.0269 9.969 16.5 9.96875C18.2074 9.96875 19.5938 8.58241 19.5938 6.875C19.5938 5.16759 18.2074 3.78125 16.5 3.78125C14.9679 3.78125 13.6943 4.89741 13.4489 6.36041ZM11 5.84375C12.3279 5.84375 13.4062 6.92209 13.4062 8.25C13.4062 9.57791 12.3279 10.6562 11 10.6562C9.67209 10.6562 8.59375 9.57791 8.59375 8.25C8.59375 6.92209 9.67209 5.84375 11 5.84375ZM16.5 4.46875C17.8279 4.46875 18.9062 5.54709 18.9062 6.875C18.9062 8.20291 17.8279 9.28125 16.5 9.28125C15.1721 9.28125 14.0938 8.20291 14.0938 6.875C14.0938 5.54709 15.1721 4.46875 16.5 4.46875ZM5.5 4.46875C6.82791 4.46875 7.90625 5.54709 7.90625 6.875C7.90625 8.20291 6.82791 9.28125 5.5 9.28125C4.17209 9.28125 3.09375 8.20291 3.09375 6.875C3.09375 5.54709 4.17209 4.46875 5.5 4.46875Z" fill="#3F3C3C"/>
<path fill-rule="evenodd" clip-rule="evenodd" d="M2.03448 19.1818H5.13793V19.6364C5.13793 19.998 5.24692 20.3449 5.44092 20.6006C5.63493 20.8563 5.89805 21 6.17241 21H15.8276C16.1019 21 16.3651 20.8563 16.5591 20.6006C16.7531 20.3449 16.8621 19.998 16.8621 19.6364V19.1818H19.9655C20.24 19.1818 20.5031 19.0382 20.6969 18.7823C20.793 18.6557 20.8693 18.5055 20.9213 18.34C20.9733 18.1746 21 17.9973 21 17.8182V15.0909C21 14.0059 20.673 12.9654 20.091 12.1982C19.509 11.431 18.7196 11 17.8966 11H15.1379C14.6275 10.9995 14.1248 11.1653 13.6746 11.4825C13.2244 11.7996 12.8406 12.2585 12.5572 12.8182H9.44276C9.15942 12.2585 8.7756 11.7996 8.3254 11.4825C7.8752 11.1653 7.37254 10.9995 6.86207 11H4.10345C3.28036 11 2.49099 11.431 1.90898 12.1982C1.32697 12.9654 1 14.0059 1 15.0909V17.8182C1 18.18 1.10897 18.5268 1.3031 18.7823C1.3991 18.909 1.51311 19.0095 1.63861 19.0781C1.76411 19.1466 1.89863 19.1819 2.03448 19.1818ZM14.7931 20.0909H15.8276C15.919 20.0909 16.0067 20.043 16.0714 19.9578C16.1361 19.8725 16.1724 19.7569 16.1724 19.6364V16.9091C16.1724 16.0652 15.9181 15.2559 15.4654 14.6592C15.0128 14.0625 14.3988 13.7273 13.7586 13.7273H8.24138C7.6012 13.7273 6.98724 14.0625 6.53457 14.6592C6.0819 15.2559 5.82759 16.0652 5.82759 16.9091V19.6364C5.82759 19.7569 5.86392 19.8725 5.92858 19.9578C5.99325 20.043 6.08096 20.0909 6.17241 20.0909H7.2069V16.9091C7.2069 16.7885 7.24323 16.6729 7.30789 16.5877C7.37256 16.5024 7.46027 16.4545 7.55172 16.4545C7.64318 16.4545 7.73089 16.5024 7.79555 16.5877C7.86022 16.6729 7.89655 16.7885 7.89655 16.9091V20.0909H14.1034V16.9091C14.1034 16.7885 14.1398 16.6729 14.2044 16.5877C14.2691 16.5024 14.3568 16.4545 14.4483 16.4545C14.5397 16.4545 14.6274 16.5024 14.6921 16.5877C14.7568 16.6729 14.7931 16.7885 14.7931 16.9091V20.0909ZM18.931 18.2727H19.9655C20.0108 18.2729 20.0557 18.2613 20.0976 18.2385C20.1395 18.2157 20.1776 18.1822 20.2097 18.14C20.2417 18.0978 20.2671 18.0476 20.2844 17.9923C20.3017 17.9371 20.3105 17.8779 20.3103 17.8182V15.0909C20.3103 14.6731 20.2479 14.2593 20.1266 13.8733C20.0053 13.4872 19.8275 13.1365 19.6034 12.841C19.3792 12.5456 19.1131 12.3112 18.8203 12.1513C18.5274 11.9914 18.2135 11.9091 17.8966 11.9091H15.1379C14.5061 11.9081 13.8994 12.2346 13.4486 12.8182H13.7586C14.5817 12.8182 15.3711 13.2492 15.9531 14.0164C16.5351 14.7836 16.8621 15.8241 16.8621 16.9091V18.2727H18.2414V15.0909C18.2414 14.9704 18.2777 14.8547 18.3424 14.7695C18.407 14.6843 18.4948 14.6364 18.5862 14.6364C18.6777 14.6364 18.7654 14.6843 18.83 14.7695C18.8947 14.8547 18.931 14.9704 18.931 15.0909V18.2727ZM3.75862 18.2727H5.13793V16.9091C5.13793 15.8241 5.4649 14.7836 6.04691 14.0164C6.62892 13.2492 7.41829 12.8182 8.24138 12.8182H8.55138C8.10062 12.2346 7.49386 11.9081 6.86207 11.9091H4.10345C3.46327 11.9091 2.84931 12.2443 2.39664 12.841C1.94396 13.4377 1.68966 14.247 1.68966 15.0909V17.8182C1.68952 17.8779 1.69834 17.9371 1.71563 17.9923C1.73291 18.0476 1.7583 18.0978 1.79035 18.14C1.8224 18.1822 1.86046 18.2157 1.90236 18.2385C1.94426 18.2613 1.98916 18.2729 2.03448 18.2727H3.06897V15.0909C3.06897 14.9704 3.1053 14.8547 3.16996 14.7695C3.23463 14.6843 3.32234 14.6364 3.41379 14.6364C3.50525 14.6364 3.59296 14.6843 3.65762 14.7695C3.72229 14.8547 3.75862 14.9704 3.75862 15.0909V18.2727Z" fill="#3F3C3C"/>
</svg>
